# xmcd
#
# Track frame offsets:
# 150
# 13106
# 25065
# 37377
# 49496
# 61445
# 75219
# 87468
# 100787
# 112851
# 127122
# 140514
# 154010
# 169009
# 181523
# 193312
# 202661
# 210690
# 219674
# 233831
# 247475
# 260038
#
# Disc length: 3582 seconds
#
#
# Revision: 0
# Processed by: cddbd v1.4PL0 Copyright (c) Steve Scherf et al.
# Submitted via: FreeRIP 2.35 
#
DISCID=3e0dfc16
DTITLE=Various Artist - Singin´In The Saddle, Songs Of The American Cowboy
DYEAR=1900
DGENRE=Country
TTITLE0=ROY ROGERS - Don´t Fence Me In
TTITLE1=GENE AUTRY - Back In The Saddle Again
TTITLE2=SONS OF THE PIONEERS - Tumbling Tumbieweeds
TTITLE3=TEX RITTER and HIS TEXANS - Singin´In The Saddle
TTITLE4=BOB WILLS and HIS TEXAS PLAYBOYS - New San Antonio Rose
TTITLE5=ROY ROGERS - Rock Me To Sleep In My Saddle
TTITLE6=GENE AUTRY - Cowboy Blues
TTITLE7=SONS OF THE PIONEERS - Cool Water
TTITLE8=FRANKIE LAINE and THE MULESKINNERS - Mule Train
TTITLE9=PATSY MONTANA and THE PRARIE RAMBLERS - I Want To Be A Cowboy´s Sweetheart
TTITLE10=GENE AUTRY - South Of The Border
TTITLE11=TEX OWENS - Cattle Call
TTITLE12=TEX RITTER - (Take Me Back To My) Boots And Saddle
TTITLE13=ROY ROGERS - On The Spanish Trail
TTITLE14=SONS OF THE PIONEERS - Cowboy Camp Meetin´
TTITLE15=FRANKIE LAINE - Rawhide
TTITLE16=GENE AUTRY - The Yellow Rose Of Texas
TTITLE17=FOY WILLING and THE RIDERS OF THE PURPLE SAGE
TTITLE18=SONS OF THE PIONEERS - There´s A Round-Up In The Sky
TTITLE19=ROY ROGERS - That Pioneer Mother Of Mine
TTITLE20=FRANKIE LAINE - High Noon
TTITLE21=GENE AUTRY - Home On The Range
EXTD=
EXTT0=
EXTT1=
EXTT2=
EXTT3=
EXTT4=
EXTT5=
EXTT6=
EXTT7=
EXTT8=
EXTT9=
EXTT10=
EXTT11=
EXTT12=
EXTT13=
EXTT14=
EXTT15=
EXTT16=
EXTT17=
EXTT18=
EXTT19=
EXTT20=
EXTT21=
PLAYORDER=
